HIERARCHY
ROOT Hips
{
  OFFSET -28.5468 85.7219 -35.1486
  CHANNELS 6 Xposition Yposition Zposition Zrotation Xrotation Yrotation
  JOINT ToSpine
  {
    OFFSET -2.69724 7.43032 -0.144315
    CHANNELS 3 Zrotation Xrotation Yrotation
    JOINT Spine
    {
      OFFSET -0.0310711 10.7595 1.96963
      CHANNELS 3 Zrotation Xrotation Yrotation
      JOINT Spine1
      {
        OFFSET 13.1342 3.43533 0.764692
        CHANNELS 3 Zrotation Xrotation Yrotation
        JOINT Neck
        {
          OFFSET 29.8703 7.82586 -0.130764
          CHANNELS 3 Zrotation Xrotation Yrotation
          JOINT Head
          {
            OFFSET 9.52751 0.295786 -0.907742
            CHANNELS 3 Zrotation Xrotation Yrotation
            End Site
            {
              OFFSET 16.4037 0.713936 2.7358
            }
          }
        }
        JOINT LeftShoulder
        {
          OFFSET 27.5574 4.95586 2.47156
          CHANNELS 3 Zrotation Xrotation Yrotation
          JOINT LeftArm
          {
            OFFSET 1.20734 -0.998971 20.1238
            CHANNELS 3 Zrotation Xrotation Yrotation
            JOINT LeftForeArm
            {
              OFFSET 26.8049 -0.0536703 -0.155908
              CHANNELS 3 Zrotation Xrotation Yrotation
              JOINT LeftHand
              {
                OFFSET 26.6817 0 0.320147
                CHANNELS 3 Zrotation Xrotation Yrotation
                End Site
                {
                  OFFSET 18.6119 0 0.382219
                }
              }
            }
          }
        }
        JOINT RightShoulder
        {
          OFFSET 27.5927 4.71444 -2.65209
          CHANNELS 3 Zrotation Xrotation Yrotation
          JOINT RightArm
          {
            OFFSET 2.83739 -1.17114 -18.7564
            CHANNELS 3 Zrotation Xrotation Yrotation
            JOINT RightForeArm
            {
              OFFSET 28.839 -0.0548439 1.22491
              CHANNELS 3 Zrotation Xrotation Yrotation
              JOINT RightHand
              {
                OFFSET 26.5114 0 -0.101894
                CHANNELS 3 Zrotation Xrotation Yrotation
                End Site
                {
                  OFFSET 18.2168 0 0
                }
              }
            }
          }
        }
      }
    }
  }
  JOINT LeftUpLeg
  {
    OFFSET -4.76168 -1.9167 -10.2353
    CHANNELS 3 Zrotation Xrotation Yrotation
    JOINT LeftLeg
    {
      OFFSET 2.55951 -42.0585 -8.02213
      CHANNELS 3 Zrotation Xrotation Yrotation
      JOINT LeftFoot
      {
        OFFSET 3.16357 -42.5282 -3.95426
        CHANNELS 3 Zrotation Xrotation Yrotation
        JOINT LeftToeBase
        {
          OFFSET 0.346054 -6.02161 12.8035
          CHANNELS 3 Zrotation Xrotation Yrotation
          End Site
          {
            OFFSET 0.134235 -1.35082 5.13018
          }
        }
      }
    }
  }
  JOINT RightUpLeg
  {
    OFFSET -4.94151 -1.41743 10.6446
    CHANNELS 3 Zrotation Xrotation Yrotation
    JOINT RightLeg
    {
      OFFSET -2.56294 -42.0364 -7.94377
      CHANNELS 3 Zrotation Xrotation Yrotation
      JOINT RightFoot
      {
        OFFSET -3.0952 -42.555 -4.02241
        CHANNELS 3 Zrotation Xrotation Yrotation
        JOINT RightToeBase
        {
          OFFSET -0.0828122 -6.13587 12.8035
          CHANNELS 3 Zrotation Xrotation Yrotation
          End Site
          {
            OFFSET -0.131328 -1.35082 5.13018
          }
        }
      }
    }
  }
}
MOTION
Frames:	18
Frame Time:	0.0333333
30.8511 97.8688 -53.8613 -13.3959 -65.6629 -105.101 -70.1915 0 88.8779 53.6889 68.4912 34.6442 11.145 21.8556 -0.593716 -147.57 21.4187 177.641 -158.663 61.1036 -162.794 0.783744 -11.3874 -32.3948 -85.138 49.5412 -68.2442 7.46641 15.938 -27.4259 0.420957 0.000575427 0.35866 -2.30201 6.93285 47.4424 -74.0433 -32.9882 88.0752 9.24741 -16.9745 29.2434 0.58676 0.000331132 0.0646653 -50.7849 2.59291 98.2287 -0.399667 21.345 -5.77813 0.865227 -8.15604 -0.783052 1.26764 -0.587243 -5.45481 -54.552 -5.09547 79.8981 2.50792 12.4602 4.7604 -19.207 5.00148 3.07935 2.37655 -19.6907 -5.14986 
30.8675 97.8694 -53.7506 -13.522 -65.6495 -105.279 -70.1915 0 88.8779 53.6592 68.5263 34.9135 11.2227 21.9686 -0.842448 -147.647 21.4063 177.627 -158.661 61.0973 -162.752 0.782533 -11.3958 -32.3405 -85.1063 49.4143 -68.3677 7.65431 16.2653 -27.4776 0.420957 0.000575427 0.35866 -2.30004 6.93239 47.418 -74.0772 -32.9624 87.9456 9.14205 -16.6187 29.4629 0.58676 0.000331132 0.0646653 -50.814 2.63743 98.3114 -0.520007 21.5057 -5.73162 0.894368 -8.45401 -0.806185 1.1781 -0.180781 -5.85725 -54.645 -5.09686 79.9398 2.42853 12.3606 4.67943 -19.4618 5.11037 3.1333 2.39356 -19.8705 -5.06773 
30.8878 97.8801 -53.5876 -14.1168 -65.6411 -106.114 -70.1915 0 88.8779 53.2586 68.6805 35.3507 11.3492 22.2417 -1.13405 -147.367 21.2762 177.075 -157.823 60.9855 -163.29 0.791284 -11.3605 -32.2393 -86.1329 49.187 -67.8538 7.62371 16.0902 -27.4935 0.420957 0.000575427 0.35866 -2.30683 6.90325 47.6447 -73.3641 -32.6148 88.1823 8.79661 -15.7826 29.7394 0.58676 0.000331132 0.0646653 -51.061 2.39608 98.3558 -0.535238 21.571 -5.99964 0.530159 -8.28335 -0.773623 1.04349 -0.591771 -4.20616 -54.7429 -5.33079 79.8393 2.44893 12.3251 5.32936 -19.4366 5.2168 3.13845 2.43634 -20.5706 -5.76049 
30.951 97.8506 -53.4627 -14.0331 -65.6628 -106.079 -70.1915 0 88.8779 53.2857 68.6765 35.39 11.3891 22.262 -1.24084 -147.272 21.2529 176.749 -157.166 60.9619 -163.807 0.797571 -11.333 -32.2033 -87.4488 49.0077 -66.8678 7.11202 13.938 -28.2259 0.420957 0.000575427 0.35866 -2.26973 6.68189 48.2 -72.527 -31.642 88.6442 8.71221 -15.7491 29.5501 0.58676 0.000331132 0.0646653 -51.1177 2.19617 98.2679 -0.430269 21.6197 -5.81845 0.528732 -8.52534 -0.791723 0.982907 -0.541254 -3.99389 -54.7425 -5.47519 79.7794 2.45686 12.4909 5.26028 -19.5833 5.00988 3.14539 2.45145 -20.7038 -5.56751 
31.0541 97.8071 -53.4279 -13.6992 -65.6938 -105.81 -70.1915 0 88.8779 54.5231 68.9663 34.1871 10.9228 22.2864 -1.24507 -147.356 21.1415 176.637 -156.548 60.8448 -164.152 0.778975 -11.4154 -32.2827 -91.807 48.1443 -63.0598 6.58373 10.6998 -31.4969 0.420957 0.000575427 0.35866 -2.27826 6.7311 48.075 -73.2553 -31.7747 88.2745 8.94773 -16.3045 29.3843 0.58676 0.000331132 0.0646653 -51.0122 2.13775 98.3095 -0.609119 21.8491 -5.88256 0.999403 -8.44811 -0.811675 1.23408 -1.0973 -4.09788 -54.4945 -5.84281 79.5675 2.64026 13.1187 5.15659 -19.941 4.57327 3.16656 2.4601 -20.6864 -5.08721 
31.2266 97.7348 -53.4858 -13.6381 -65.7305 -106.047 -70.1915 0 88.8779 57.2113 69.7371 31.2629 9.68971 22.495 -1.22228 -147.008 21.0408 175.893 -155.48 60.7848 -164.496 0.787678 -11.3643 -32.4952 -101.545 45.0217 -55.1311 9.43654 11.6861 -39.0257 0.420957 0.000575427 0.35866 -2.29489 6.88597 47.5651 -72.9037 -32.3641 88.2189 8.41562 -15.3146 29.3606 0.58676 0.000331132 0.0646653 -50.772 1.76418 98.1847 -0.689468 22.3085 -5.49229 0.967207 -8.66908 -0.82565 1.23851 -1.1397 -4.02406 -53.5063 -6.54864 79.4144 2.71843 14.9627 5.14723 -20.0982 3.70725 3.11116 2.50187 -21.0423 -4.59798 
31.4266 97.6386 -53.6709 -13.0176 -65.8993 -105.6 -70.1915 0 88.8779 61.836 70.651 26.4627 8.12238 22.7175 -1.63206 -146.573 20.9278 174.598 -155.222 60.7868 -164.532 0.833596 -11.1686 -32.1441 -106.412 42.6356 -52.0789 12.7428 11.5695 -48.0084 0.420957 0.000575427 0.35866 -2.27305 6.77288 47.806 -72.9728 -32.2549 87.5481 8.11175 -14.2846 30.1243 0.58676 0.000331132 0.0646653 -50.2441 1.39545 97.9306 -0.685638 23.222 -5.34758 1.30386 -8.82166 -0.853899 1.37752 -1.60936 -3.68938 -52.2926 -6.6449 79.9137 2.04501 17.2604 5.20741 -20.0377 3.07572 3.04147 2.50297 -21.4838 -6.07317 
31.4655 97.4966 -54.1586 -12.13 -66.0198 -104.653 -70.1915 0 88.8779 68.4264 71.5713 18.9588 5.92191 22.656 -1.10851 -146.117 21.0304 174.495 -155.976 60.993 -163.035 0.836306 -11.1737 -31.7217 -107.428 41.7291 -52.7892 15.0688 9.69431 -57.4865 0.420957 0.000575427 0.35866 -2.18557 6.66401 47.0887 -73.0017 -33.2406 87.6306 7.64311 -13.1909 30.5773 0.58676 0.000331132 0.0646653 -49.1399 1.3431 97.5628 -0.615646 24.6746 -5.07293 1.27555 -9.23599 -0.881176 1.22731 -1.48628 -3.12752 -50.2543 -6.00553 80.9324 0.875748 20.5927 5.0794 -20.4258 2.86695 3.08101 2.43407 -22.4387 -9.2964 
31.3523 97.272 -54.9337 -10.3977 -65.7378 -102.61 -70.1915 0 88.8779 73.1464 71.7084 12.5631 4.80019 21.9657 0.037002 -146.912 20.9045 174.828 -156.493 60.917 -161.855 0.754821 -11.5521 -31.8557 -108.335 40.0096 -54.7046 20.1664 8.35697 -67.8404 0.420957 0.000575427 0.35866 -2.19301 6.86987 46.2239 -71.941 -33.9941 89.0701 8.16451 -14.3935 30.1017 0.58676 0.000331132 0.0646653 -47.0914 1.75584 97.265 -0.774691 26.6733 -5.81536 0.951608 -9.79675 -0.905745 0.754614 -1.03534 -1.58423 -46.5492 -5.16783 83.8259 0.207558 25.9534 1.38634 -20.9268 2.70007 3.13556 2.48108 -24.1102 -10.8002 
31.2144 96.9085 -56.0844 -10.5153 -65.0151 -102.423 -70.1915 0 88.8779 80.936 71.8125 3.22137 2.90069 21.3919 0.978081 -148.237 20.6185 176.475 -159.591 60.6841 -157.791 0.693356 -11.8708 -31.4754 -107.171 38.8589 -59.479 23.6018 5.73953 -76.4791 0.420957 0.000575427 0.35866 -2.22112 7.10973 45.5413 -71.235 -34.6976 90.4674 8.28968 -14.6479 30.061 0.58676 0.000331132 0.0646653 -44.2413 2.47643 96.6382 -1.15218 29.474 -5.44166 0.897298 -10.6008 -0.961797 0.56543 -0.857811 -0.997463 -39.4705 -2.49133 88.4307 1.14714 36.9608 -1.25091 -17.9357 3.6966 2.76483 1.83192 -25.7909 -19.6923 
30.8711 96.2614 -57.4104 -13.2607 -63.8763 -104.95 -70.1915 0 88.8779 91.0693 71.9476 -8.13405 0.541098 21.5642 1.11219 -150.117 20.3455 178.131 -164.263 60.3731 -152.58 0.679096 -12.064 -29.9448 -105.343 38.5267 -66.1754 26.2895 3.23713 -82.8029 0.420957 0.000575427 0.35866 -2.27398 7.11176 46.2455 -71.3247 -34.4964 90.4228 7.73817 -13.0463 31.1877 0.58676 0.000331132 0.0646653 -40.4886 3.7168 95.9541 -1.83461 33.8613 -4.73174 1.08937 -11.2855 -1.01657 0.771284 -1.84066 0.374261 -28.7853 -1.35096 87.7249 4.30627 55.3877 -1.52338 -16.9361 2.32402 2.50234 1.67135 -27.8586 -21.8438 
30.2753 95.3772 -58.4504 -15.8168 -63.6937 -105.773 -70.1915 0 88.8779 101.081 71.2099 -17.8028 -0.256337 21.468 0.544055 -151.428 20.2776 -179.286 -170.004 59.9641 -145.796 0.691619 -12.2121 -27.8027 -102.917 38.6813 -74.6606 29.0907 1.99433 -85.776 0.420957 0.000575427 0.35866 -2.37813 7.27513 46.9063 -71.1233 -34.5511 89.8221 7.48146 -11.6943 33.1053 0.58676 0.000331132 0.0646653 -36.7263 6.54342 94.8937 -2.40769 40.0786 -4.51559 1.55069 -12.6702 -1.1237 1.23382 -2.96827 0.701102 -19.5295 1.72132 83.7907 12.37 74.8165 -1.58076 -17.599 2.09059 2.58336 0.199728 -33.8166 -27.4835 
29.5537 94.5254 -59.0233 -17.077 -64.1152 -105.105 -70.1915 0 88.8779 107.672 70.0307 -24.1064 -0.792183 20.97 0.30007 -150.114 20.1601 -176.451 -175.004 59.0543 -137.999 0.814626 -11.6372 -26.1074 -99.269 38.7038 -84.7947 29.7523 2.49009 -84.9564 0.420957 0.000575427 0.35866 -2.52487 7.49711 47.8316 -69.2925 -34.3292 89.4207 6.99981 -10.3361 34.5851 0.58676 0.000331132 0.0646653 -34.1793 8.35392 92.4309 -2.92945 45.0421 -5.19383 1.6136 -13.6521 -1.1917 1.19453 -4.14455 4.54874 -13.1091 1.44109 76.7735 98.9054 85.5046 -90.9799 -18.4485 0.314663 2.57075 1.65008 -35.7827 -17.6799 
28.7657 93.8143 -59.3538 -17.0774 -63.6854 -104.316 -70.1915 0 88.8779 107.352 69.9944 -24.2299 -0.0335485 20.9614 -0.328482 -148.991 20.1613 -175.85 -176.87 58.6277 -135.045 0.877067 -11.3026 -25.1332 -96.1063 38.0056 -94.8277 31.3584 5.29709 -80.7363 0.420957 0.000575427 0.35866 -2.61948 7.33939 49.7454 -67.1247 -33.0061 88.7146 6.37454 -8.98382 35.8292 0.58676 0.000331132 0.0646653 -31.8475 9.49452 91.1568 -3.2864 47.9643 -5.50862 0.847251 -14.5616 -1.25121 1.16117 -4.45555 5.75193 -7.78235 0.905228 72.1293 154.961 77.6617 -145.225 -19.5631 2.13681 2.87719 1.54862 -37.5795 -17.7912 
28.0566 92.9285 -59.6114 -16.8048 -63.6905 -103.626 -70.1915 0 88.8779 109.973 69.7912 -27.417 -0.316715 21.099 -0.333615 -147.777 20.3736 -175.706 -176.939 58.6831 -133.544 0.754745 -12.1213 -25.1636 -94.7128 36.9046 -101.315 31.2679 8.96548 -74.9848 0.420957 0.000575427 0.35866 -2.66689 7.32351 50.4305 -64.9494 -32.7725 88.0151 4.82801 -6.77999 35.9763 0.58676 0.000331132 0.0646653 -29.8139 10.7472 90.7993 -3.67495 51.0723 -4.49338 0.949189 -15.5078 -1.32119 1.8756 -4.6513 1.74502 -4.51609 0.0213116 70.3349 160.334 73.1509 -148.624 -18.2493 5.74431 2.96743 2.13159 -38.8397 -14.8636 
27.4 92.0699 -59.7306 -16.5763 -63.9195 -103.119 -70.1915 0 88.8779 113.687 68.7675 -30.9437 -0.789489 20.9364 -1.0537 -148.266 20.329 -175.009 -178.13 58.4136 -132.237 0.810781 -11.8986 -23.6027 -93.805 38.2204 -104.76 30.0657 12.5891 -68.7698 0.420957 0.000575427 0.35866 -2.70838 7.43676 50.4253 -63.5559 -33.071 88.4371 4.21595 -6.15217 34.9999 0.58676 0.000331132 0.0646653 -28.2101 12.0703 90.9218 -4.40239 54.0543 -6.01926 1.25541 -15.5985 -1.32487 2.55159 -6.42326 3.19318 -3.1693 -1.18578 72.6219 159.235 74.4566 -148.618 -16.9775 8.60801 2.94253 3.31986 -36.2835 -7.96495 
26.9088 91.2907 -59.5913 -15.4799 -64.1163 -101.428 -70.1915 0 88.8779 115.435 68.0579 -31.518 -0.0875775 20.5062 -1.28362 -149.554 20.8164 -173.187 179.725 58.4769 -129.999 0.769092 -12.1555 -23.9898 -93.8234 37.9656 -104.625 28.9565 15.9047 -63.0718 0.420957 0.000575427 0.35866 -2.66603 7.26876 50.6818 -66.2166 -31.8216 86.3201 4.34729 -6.3113 35.1453 0.58676 0.000331132 0.0646653 -26.6889 12.8304 89.9189 -5.04935 56.6973 -6.18205 0.633942 -16.3492 -1.39022 3.17396 -7.50165 2.51025 -4.13858 -2.77015 78.1044 146.809 81.2273 -139.361 -16.9736 8.54294 2.93688 3.28771 -34.6931 -7.59245 
26.3668 90.4684 -59.2607 -14.4359 -64.0987 -100.564 -70.1915 0 88.8779 113.968 68.1417 -29.77 1.36466 20.1313 -0.964734 -148.604 21.1892 -173.552 -178.087 59.1647 -130.461 0.745292 -12.2726 -24.3994 -92.7321 37.5041 -102.663 27.2826 18.6314 -57.662 0.420957 0.000575427 0.35866 -2.62746 7.05101 51.2457 -71.3633 -29.2901 82.6691 4.38242 -5.82511 37.5549 0.58676 0.000331132 0.0646653 -25.4913 13.256 89.7959 -5.77502 58.9933 -6.75613 -0.400443 -18.0424 -1.55119 2.75289 -6.83405 3.2114 -7.09271 -4.99304 85.909 38.4722 84.2737 -36.572 -15.6526 6.6628 2.5553 2.56583 -30.9 -11.2661 
